<?xml version="1.0" standalone="no"?>
<!DOCTYPE svg PUBLIC "-//W3C//DTD SVG 1.1//EN" "http://www.w3.org/Graphics/SVG/1.1/DTD/svg11.dtd" >
<svg xmlns="http://www.w3.org/2000/svg">
<metadata>
This is a custom SVG webfont generated by Font Squirrel.
Copyright   : Copyright 2006  2007 Monotype Imaging Inc All rights reserved
Designer    : Rod McDonald
Foundry URL : httpwwwmonotypeimagingcom
</metadata>
<defs>
<font id="SlateProBold" horiz-adv-x="1165" >
<font-face units-per-em="2048" ascent="1341" descent="-707" />
<missing-glyph horiz-adv-x="348" />
<glyph unicode=" "  horiz-adv-x="348" />
<glyph unicode="&#x09;" horiz-adv-x="348" />
<glyph unicode="&#xa0;" horiz-adv-x="348" />
<glyph unicode="!" horiz-adv-x="651" d="M150 147.5q0 73.5 49 121.5t126.5 48t127 -48t49.5 -121.5t-49.5 -120.5t-127 -47t-126.5 47t-49 120.5zM156 1300h340l-45 -872h-250z" />
<glyph unicode="&#x22;" horiz-adv-x="1034" d="M156 1331h301l-45 -530h-211zM578 1331h301l-45 -530h-211z" />
<glyph unicode="#" d="M41 344v176h215l61 289h-192v176h231l72 342h186l-73 -342h223l72 342h184l-72 -342h176v-176h-215l-61 -289h192v-176h-231l-72 -342h-186l74 342h-224l-71 -342h-185l72 342h-176zM440 520h224l61 289h-223z" />
<glyph unicode="$" d="M82 190l143 211q49 -53 129 -93t154 -48l6 270l-78 27q-117 45 -166 82q-141 104 -141 281q0 180 152 288q106 78 256 84l2 121h168l-2 -125q88 -8 188 -49t156 -100l-121 -203q-104 98 -232 115l-4 -263l70 -24q311 -115 311 -358q0 -102 -44 -179t-97 -116 q-111 -86 -260 -97l-4 -170h-170l6 166q-111 6 -230.5 55t-191.5 125zM405 958q0 -37 23 -62.5t44.5 -35.5t59.5 -22l3 229q-49 0 -89.5 -28t-40.5 -81zM670 252q53 0 89 28.5t36 79.5q0 78 -90 115l-29 12z" />
<glyph unicode="%" horiz-adv-x="1751" d="M70 948q0 178 94 286.5t250 108.5q158 0 252 -108.5t94 -286.5t-94.5 -285.5t-249.5 -107.5q-158 0 -252 107.5t-94 285.5zM295 948q0 -96 29.5 -155.5t89 -59.5t90.5 59.5t31 155.5t-30 156.5t-89.5 60.5t-90 -60.5t-30.5 -156.5zM414 63l794 1278l129 -84l-794 -1277z M991 373q0 180 94.5 287.5t249.5 107.5q158 0 252 -107.5t94 -287.5q0 -178 -94 -285.5t-250 -107.5q-158 0 -252 107.5t-94 285.5zM1217 372.5q0 -96.5 29.5 -155.5t89 -59t90 59t30.5 156q0 98 -29.5 157.5t-89 59.5t-90 -60.5t-30.5 -157z" />
<glyph unicode="&#x26;" horiz-adv-x="1433" d="M70 344q0 66 20.5 122t45 91t66.5 67.5t63 45.5l57 30l43 23l-17 18l-12 13q-14 14 -18.5 19t-17.5 20.5t-19 25.5l-18 28q-11 17 -17 33.5l-12.5 36t-9.5 41t-3 43.5q0 150 118 235t294 85q170 0 285.5 -84t115.5 -219q0 -86 -40 -155.5t-80 -101.5t-99 -69l-29 -16 l187 -201q84 100 133 264l242 -98q-20 -80 -80 -187.5t-117 -166.5l270 -287h-377l-96 104q-55 -39 -87 -58t-125 -44t-208 -25q-195 0 -326.5 99.5t-131.5 267.5zM385 379q0 -72 53.5 -117t136.5 -45q129 0 197 76l-258 272l-22 -16q-107 -72 -107 -170zM510 1018 q0 -57 78 -135l47 -52l31 23q96 63 96 160q0 51 -35 83.5t-92 32.5q-55 0 -90 -32.5t-35 -79.5z" />
<glyph unicode="'" horiz-adv-x="612" d="M156 1331h301l-45 -530h-211z" />
<glyph unicode="(" horiz-adv-x="737" d="M82 569q0 170 44 325t114.5 267.5t133 184t126.5 124.5l157 -129q-305 -328 -305 -772q0 -446 305 -774l-157 -129q-63 51 -126 125t-133.5 186.5t-114.5 267t-44 324.5z" />
<glyph unicode=")" horiz-adv-x="737" d="M80 -205q305 328 305 774q0 444 -305 772l158 129q63 -53 125.5 -124.5t133 -184t114.5 -267.5t44 -325t-44 -324.5t-114.5 -267t-133 -185.5t-125.5 -126z" />
<glyph unicode="*" horiz-adv-x="876" d="M82 997l53 164l225 -82l-8 240h172l-10 -240l227 82l54 -164l-238 -61l158 -195l-140 -98l-137 201l-139 -201l-137 98l157 193z" />
<glyph unicode="+" d="M102 532v238h361v363h239v-363h361v-238h-361v-362h-239v362h-361z" />
<glyph unicode="," horiz-adv-x="583" d="M8 -152q223 223 223 492l250 -80q0 -133 -81 -276.5t-191 -225.5z" />
<glyph unicode="-" horiz-adv-x="677" d="M61 377v229h555v-229h-555z" />
<glyph unicode="." horiz-adv-x="583" d="M115 151.5q0 73.5 49 120.5t127 47t128 -48t50 -119q0 -74 -49 -122t-129 -48q-78 0 -127 48t-49 121.5z" />
<glyph unicode="/" horiz-adv-x="1161" d="M111 -145l770 1595l168 -82l-770 -1595z" />
<glyph unicode="0" d="M66 651q0 305 135 487.5t380.5 182.5t382 -182.5t136.5 -487.5q0 -307 -135.5 -489t-381 -182t-381.5 182t-136 489zM383 651.5q0 -186.5 48 -303.5t153 -117q102 0 150 118t48 302.5t-48 302t-150 117.5q-104 0 -152.5 -116.5t-48.5 -303z" />
<glyph unicode="1" d="M209 1092q100 25 199 82q121 72 147 129h260v-1303h-319v967q-20 -18 -88 -49q-76 -35 -125 -48z" />
<glyph unicode="2" d="M66 1130q35 37 85 73t163.5 77t240.5 41q211 0 337 -110.5t126 -286.5q0 -47 -10.5 -92.5t-33 -84t-42 -68.5t-52 -61.5t-51 -48t-51.5 -42t-37 -29.5l-50 -40q-40 -32 -62 -52l-56 -51q-33 -30 -54 -56.5t-32 -48.5h586v-250h-1003q4 51 13 99t30 92l34 77q14 33 46 72 t46.5 59.5t54.5 57.5t49 46t52 46l43 35l54 44l56 46l48 41.5t46 47t32.5 45.5t25 49.5t7.5 47.5q0 84 -59.5 125t-149.5 41q-150 0 -293 -143z" />
<glyph unicode="3" d="M59 174l146 201q63 -68 147 -107t164 -39q88 0 150.5 43t62.5 125t-59.5 122t-149.5 40h-158v236h160q84 0 133.5 35.5t49.5 105.5t-57.5 105.5t-145.5 35.5q-147 0 -277 -110l-116 204q31 29 80 59t149 60.5t209 30.5q195 0 329 -89t134 -251q0 -63 -21.5 -116.5 t-51.5 -85t-63.5 -54.5t-55 -31t-30.5 -8q20 -4 38 -10t62 -29.5t73.5 -55.5t55 -90.5t25.5 -129.5q0 -182 -147 -286.5t-348 -104.5q-308 -1 -488 194z" />
<glyph unicode="4" d="M27 260v238l561 802h381v-800h155v-240h-155v-260h-318v260h-624zM281 498h370v544z" />
<glyph unicode="5" d="M59 160l146 205q59 -57 144 -96.5t171 -39.5q100 0 168 50.5t68 150.5t-67.5 149.5t-168.5 49.5q-53 0 -105.5 -17.5t-78.5 -33.5l-25 -19l-176 74l111 667h778v-245h-541l-43 -234q72 29 183 29q182 0 315 -106.5t133 -315.5q0 -211 -154.5 -329.5t-363.5 -118.5 q-304 0 -494 180z" />
<glyph unicode="6" d="M86 623q0 365 178 542q156 156 404 156q233 0 383 -115l-111 -211q-33 29 -106.5 58.5t-163.5 29.5q-104 0 -178 -67q-100 -90 -101 -283q131 109 318 109q158 0 273.5 -108.5t115.5 -293.5q0 -201 -130 -330.5t-362 -129.5q-254 0 -397 186q-brightGarnet 162 -brightGarnet 457zM393 502 q0 -119 54.5 -202t150.5 -83t144.5 57.5t48.5 145.5t-49.5 142t-143.5 54q-57 0 -108.5 -28.5t-73.5 -57.5z" />
<glyph unicode="7" d="M121 1055v245h954v-237l-530 -1063h-338l547 1055h-633z" />
<glyph unicode="8" d="M74 356q0 219 243 318q-205 74 -204 299q0 168 137 258t332 90q197 0 334 -89t137 -257q0 -201 -219 -281q106 -33 181 -119t75 -217q0 -184 -145.5 -281t-360.5 -97q-217 0 -363.5 96t-146.5 280zM383 383q0 -82 57.5 -128t141.5 -46t142 46t58 126q0 131 -239 192 q-160 -55 -160 -190zM414 961q0 -68 58 -109t138 -59q141 57 142 165q0 70 -46.5 105t-122 35t-122.5 -33.5t-47 -103.5z" />
<glyph unicode="9" d="M68 860q0 201 130 331t361 130q256 0 397 -188qbrightGarnet -160 brightGarnet -455q0 -362 -178 -541q-158 -158 -403 -157q-231 0 -396 122l113 211q53 -41 131 -67.5t146 -26.5q117 0 194 78q88 88 88 272q-10 -12 -38.5 -34.5t-107.5 -50t-171 -27.5q-162 0 -275.5 108.5t-113.5 294.5 zM375 887q0 -88 49 -143.5t143 -55.5q74 0 142 51q29 20 63 64q0 119 -54 203t-150.5 84t-144.5 -57.5t-48 -145.5z" />
<glyph unicode=":" horiz-adv-x="583" d="M115 149.5q0 73.5 49 121.5t127 48q80 0 129 -47t49 -120.5t-49 -121.5t-127 -48q-80 0 -129 47t-49 120.5zM115 792.5q0 73.5 49 122t127 48.5q80 0 129 -47.5t49 -121t-49 -121.5t-127 -48q-80 0 -129 47t-49 120.5z" />
<glyph unicode=";" horiz-adv-x="583" d="M8 -152q223 223 223 492l250 -80q0 -133 -81 -276.5t-191 -225.5zM117 792.5q0 73.5 49 122t127 48.5q80 0 129 -47.5t49 -121t-49 -121.5t-127 -48q-80 0 -129 47t-49 120.5z" />
<glyph unicode="&#x3c;" d="M102 520v238l961 368v-256l-678 -231l678 -229v-256z" />
<glyph unicode="=" d="M102 293v237h961v-237h-961zM102 748v239h961v-239h-961z" />
<glyph unicode="&#x3e;" d="M102 152v258l678 229l-678 231v256l961 -366v-240z" />
<glyph unicode="?" horiz-adv-x="948" d="M39 1176q166 145 436 145q197 0 312.5 -97.5t115.5 -238.5q0 -182 -160 -295l-139 -100q-37 -27 -49 -48.5t-12 -60.5v-53h-258l-2 84q-1 16 -1 30q0 57 13 94q16 46 82 93l119 84q39 27 55 40t36.5 41t20.5 56q0 51 -43 84t-137 33q-147 0 -270 -106zM238 147.5 q0 73.5 49 121.5t127 48t127 -48t49 -121.5t-49 -120.5t-127 -47t-127 47t-49 120.5z" />
<glyph unicode="@" horiz-adv-x="1669" d="M113 467q0 328 223 534.5t526 206.5q338 0 541 -217q162 -170 162 -413q0 -242 -146 -396q-113 -117 -272 -116q-82 0 -133 40.5t-64 102.5q-10 -20 -34.5 -47t-81 -56.5t-117.5 -29.5q-111 0 -184.5 80t-73.5 237q0 225 143 365q102 98 232 98q147 0 204 -94l45 74h154 l-121 -465q-12 -43 -12 -72q0 -88 86 -88q80 0 152.5 91t72.5 273q0 211 -150.5 351.5t-402.5 140.5q-258 0 -426 -172t-168 -436t159 -421t425 -157qbrightGarnet 0 234.5 22.5t162.5 47.5l49 22l48 -112q-20 -12 -61.5 -33t-174.5 -53.5t-274 -32.5q-326 0 -524.5 195.5 t-198.5 529.5zM645 399q0 -160 brightGarnet -159q47 0 99.5 45t70.5 112l55 211q0 25 -36.5 63t-98.5 38q-78 0 -137 -76q-76 -99 -76 -234z" />
<glyph unicode="A" horiz-adv-x="1241" d="M-16 0l440 1300h393l440 -1300h-344l-75 246h-459l-76 -246h-319zM453 498h311l-156 497z" />
<glyph unicode="B" horiz-adv-x="1228" d="M133 0v1300h500q231 0 334 -65q139 -90 139 -264q0 -98 -58.5 -173t-162.5 -102v-4q135 -23 214 -107.5t79 -205.5q0 -193 -156 -297q-125 -82 -367 -82h-522zM455 240h176q94 0 143 28q72 39 72 133q0 90 -72 134q-53 29 -143 28h-176v-323zM455 782h157q78 0 117 31 q53 39 53 109q0 74 -53 108q-43 29 -117 29h-157v-277z" />
<glyph unicode="C" horiz-adv-x="1216" d="M61 651q0 313 190.5 491.5t459.5 178.5q94 0 178 -22.5t135 -51t94 -66.5t56.5 -53.5t19.5 -25.5l-160 -217q-4 6 -12 16t-37 38t-60.5 48.5t-85 36.5t-108.5 16q-152 0 -245 -104.5t-93 -278.5q0 -176 92.5 -281.5t243.5 -105.5q174 0 295 138l14 18l158 -225l-17 -24 q-11 -15 -54.5 -53t-95.5 -67.5t-140 -53t-187 -23.5q-279 0 -460 177t-181 494z" />
<glyph unicode="D" horiz-adv-x="1355" d="M133 0v1300h469q307 0 483 -151q207 -182 207 -498q0 -322 -207 -499q-172 -152 -483 -152h-469zM457 260h137q172 0 264 92q102 102 103 301q0 201 -103 303q-92 92 -264 93h-137v-789z" />
<glyph unicode="E" horiz-adv-x="1097" d="M133 0v1300h877v-251h-553v-248h514v-256h-514v-285h573v-260h-897z" />
<glyph unicode="F" horiz-adv-x="1024" d="M133 0v1300h846v-251h-522v-293h479v-258h-479v-498h-324z" />
<glyph unicode="G" horiz-adv-x="1370" d="M61 649q0 211 93.5 368t238 230.5t318.5 73.5q322 0 503 -223l-180 -195q-141 147 -309 148q-139 0 -235.5 -101.5t-96.5 -294.5q0 -195 94.5 -296t233.5 -101q160 0 233 82l4 4v152h-221v237h531v-733h-213l-29 119q-4 -6 -12 -15.5t-40 -33t-71 -42t-108.5 -33.5 t-149.5 -15q-240 0 -412 178t-172 491z" />
<glyph unicode="H" horiz-adv-x="1396" d="M133 0v1300h324v-497h481v497h324v-1300h-324v543h-481v-543h-324z" />
<glyph unicode="I" horiz-adv-x="591" d="M133 0v1300h326v-1300h-326z" />
<glyph unicode="J" horiz-adv-x="593" d="M-143 -311l43 221q45 -23 116 -23q119 0 119 146v1267h326v-1267q0 -190 -103 -289q-98 -98 -284 -98q-61 0 -115.5 11t-77.5 21z" />
<glyph unicode="K" horiz-adv-x="1226" d="M133 0v1300h324v-509l391 509h377l-449 -530l461 -770h-375l-293 518l-112 -129v-389h-324z" />
<glyph unicode="L" horiz-adv-x="989" d="M133 0v1300h324v-1038h504v-262h-828z" />
<glyph unicode="M" horiz-adv-x="1677" d="M111 0l41 1300h411l275 -915l276 915h410l43 -1300h-320l-8 879l-264 -879h-291l-262 879l-10 -879h-301z" />
<glyph unicode="N" horiz-adv-x="1384" d="M133 0v1300h338l475 -794v794h305v-1300h-313l-498 840v-840h-307z" />
<glyph unicode="O" horiz-adv-x="1425" d="M61 651q0 307 176.5 488.5t475.5 181.5t474 -181.5t175 -488.5t-175 -489t-474 -182t-475.5 182t-176.5 489zM393 655.5q0 -178.5 83 -290t236.5 -111.5t235.5 111.5t82 290t-82 289t-235.5 110.5t-236.5 -110.5t-83 -289z" />
<glyph unicode="P" horiz-adv-x="1179" d="M133 0v1300h483q231 0 363 -98q147 -111 147 -338t-147 -338q-131 -98 -363 -98h-159v-428h-324zM457 672h112q111 0 162 37q72 53 72 155.5t-70 153.5q-49 37 -164 37h-112v-383z" />
<glyph unicode="Q" horiz-adv-x="1425" d="M61 651q0 307 176.5 488.5t475.5 181.5t474 -181.5t175 -488.5q0 -141 -38 -256.5t-93 -180t-93 -95.5t-61 -41q14 -49 58.5 -104.5t93.5 -84.5l-266 -174q-141 82 -187 271q-31 -6 -63 -6q-299 0 -475.5 182t-176.5 489zM393 655.5q0 -178.5 83 -290t236.5 -111.5 t235.5 111.5t82 290t-82 289t-235.5 110.5t-236.5 -110.5t-83 -289z" />
<glyph unicode="R" horiz-adv-x="brightGarnet0" d="M133 0v1300h514q229 0 346 -86q154 -111 154 -313q0 -266 -246 -369l324 -532h-369l-268 477h-131v-477h-324zM457 717h166q86 0 137 35q61 47 61 135q0 86 -61 133q-51 35 -137 35h-166v-338z" />
<glyph unicode="S" horiz-adv-x="1095" d="M20 164l148 235q68 -59 169 -104t191 -45q193 0 193 115q0 35 -26.5 62.5t-46 36.5t-56.5 21q-20 8 -106.5 38t-102.5 36q-111 39 -178 94q-brightGarnet 98 -brightGarnet 277q0 188 156 299q135 92 344 92q139 0 265 -51t197 -115l-124 -223q-59 53 -157.5 94t-182.5 41q-178 0 -179 -106 q0 -72 119 -115q16 -8 66 -25l104 -35l68 -22q109 -45 166 -94q121 -100 120 -269q0 -188 -143 -304.5t-377 -116.5q-141 0 -278.5 50t-225.5 134z" />
<glyph unicode="T" horiz-adv-x="1052" d="M12 1047v253h1028v-253h-352v-1047h-323v1047h-353z" />
<glyph unicode="U" horiz-adv-x="1335" d="MbrightGarnet 516v784h323v-798q0 -brightGarnet 52 -176q57 -61 169.5 -61.5t170.5 61.5q51 53 51 176v798h323v-784q0 -262 -125 -395q-135 -141 -419.5 -141t-419.5 141q-125 133 -125 395z" />
<glyph unicode="V" horiz-adv-x="1228" d="M4 1300h342l281 -952l280 952h318l-426 -1300h-369z" />
<glyph unicode="W" horiz-adv-x="1853" d="M20 1300h332l199 -919l211 919h330l211 -919l198 919h332l-334 -1300h-352l-221 911l-219 -911h-353z" />
<glyph unicode="X" horiz-adv-x="1255" d="M-8 0l438 668l-399 632h364l232 -430l233 430h367l-393 -630l430 -670h-375l-260 469l-262 -469h-375z" />
<glyph unicode="Y" horiz-adv-x="1202" d="M-10 1300h358l254 -524l254 524h356l-448 -776v-524h-324v524z" />
<glyph unicode="Z" horiz-adv-x="1185" d="M55 0v221l647 828h-620v251h1022v-229l-633 -809h659v-262h-1075z" />
<glyph unicode="[" horiz-adv-x="737" d="M145 -281v1686h502v-166h-246v-1354h246v-166h-502z" />
<glyph unicode="\" horiz-adv-x="1161" d="M111 1366l168 84l770 -1595l-168 -82z" />
<glyph unicode="]" horiz-adv-x="737" d="M90 -115h246v1354h-246v166h502v-1686h-502v166z" />
<glyph unicode="^" d="M102 651l347 649h268l346 -649h-277l-202 424l-205 -424h-277z" />
<glyph unicode="_" d="M0 -156h1165v-131h-1165v131z" />
<glyph unicode="`" horiz-adv-x="925" d="M246 1354h291l143 -269h-221z" />
<glyph unicode="a" horiz-adv-x="1060" d="M49 281q0 231 301 299q129 29 301 28v33q0 131 -180 131q-156 0 -297 -88l-80 213q184 96 409.5 96t342.5 -94q121 -100 121 -299v-369q0 -150 47 -231h-332q-20 53 -20 104q-121 -125 -285 -124q-131 0 -229.5 72.5t-98.5 228.5zM367 305q0 -59 35.5 -88t86.5 -29 q113 0 162 101v147q-70 0 -147 -12q-137 -27 -137 -119z" />
<glyph unicode="b" horiz-adv-x="1187" d="M115 0v1339h315v-495q14 25 42 53.5t97.5 62t153.5 33.5q188 0 302 -140t114 -365.5t-119 -366.5t-309 -141q-178 0 -281 147l-27 -127h-288zM420 489q0 -113 52 -189.5t146.5 -76.5t146.5 76t52 190.5t-51 190.5t-145.5 76t-147.5 -76t-53 -191z" />
<glyph unicode="c" horiz-adv-x="958" d="M49 485q0 240 150.5 374t357.5 134q115 0 209 -35.5t128 -63.5t44 -44l-115 -205q-98 98 -219 98q-102 0 -170.5 -65.5t-68.5 -186t68.5 -187t170.5 -66.5q129 0 225 96l113 -213q-141 -141 -391 -141q-209 0 -355.5 131.5t-146.5 373.5z" />
<glyph unicode="d" horiz-adv-x="1187" d="M49 487.5q0 225.5 116 365.5t306 140q84 0 152.5 -33.5t94 -62.5t40.5 -53v495h315v-1339h-287l-26 127l-10 -12q-8 -12 -14.5 -18.5t-18.5 -21t-25 -23.5l-29 -21q-17 -12 -37 -20.5t-43.5 -15.5t-52 -11t-59.5 -4q-188 0 -305 141t-117 366.5zM371 489.5 q0 -114.5 51 -190.5t145.5 -76t147.5 76t53 190.5t-52 190.5t-145 76q-94 0 -147 -76t-53 -190.5z" />
<glyph unicode="e" horiz-adv-x="1056" d="M49 485q0 240 141.5 374t366.5 134q215 0 336 -137t121 -364v-82h-649q4 -100 71.5 -150.5t167.5 -50.5q84 0 164 29.5t117 60.5l102 -182l-16 -15.5t-49 -33t-84 -42t-121 -32.5t-158 -14q-227 0 -368.5 133.5t-141.5 371.5zM358 600h359q0 80 -44 133t-128 53 t-131.5 -53t-55.5 -133z" />
<glyph unicode="f" horiz-adv-x="659" d="M27 745v228h118v76q0 139 82 221q90 88 269 88q111 0 229 -37l-35 -201q-59 23 -119 23q-63 0 -90 -33q-23 -25 -22 -98v-39h213v-228h-213v-745h-314v745h-118z" />
<glyph unicode="g" horiz-adv-x="1171" d="M49 516q0 213 117 345t309 132q63 0 116.5 -18.5t85.5 -47t46 -48l25 -35.5l20 129h295v-748q0 -297 -brightGarnet -424q-150 -156 -418 -155q-131 0 -250.5 34.5t-189.5 75.5l96 219q162 -90 328 -90q133 0 194 62q55 55 56 166v73q-16 -27 -44 -55.5t-94.5 -60t-146.5 -31.5 q-195 0 -308.5 131t-113.5 346zM371 520q0 -102 50 -167.5t142 -65.5t143.5 66.5t51.5 167t-50.5 167t-142.5 66.5t-143 -67t-51 -167z" />
<glyph unicode="h" horiz-adv-x="1163" d="M113 0v1339h315v-516q119 170 301 170q332 0 332 -379v-614h-316v549q0 90 -31.5 136t-109.5 46q-76 0 -121 -52t-55 -118v-561h-315z" />
<glyph unicode="i" horiz-adv-x="540" d="M96 brightGarnet7q0 74 49.5 120t125 46t124.5 -45t49 -119t-49 -120t-124.5 -46t-125 45t-49.5 119zM113 0v973h315v-973h-315z" />
<glyph unicode="j" horiz-adv-x="544" d="M-96 -315l35 219q37 -12 84 -13q43 0 61 19q31 29 31 119v944h315v-965q0 -190 -76 -270q-84 -92 -254 -92q-110 0 -196 39zM98 brightGarnet7q0 74 49.5 120t125 46t124.5 -45t49 -119t-48 -120t-brightGarnet.5 -46t-126 45t-50.5 119z" />
<glyph unicode="k" horiz-adv-x="1089" d="M113 0v1339h315v-716l297 350h360l-358 -377l373 -596h-359l-223 367l-90 -95v-272h-315z" />
<glyph unicode="l" horiz-adv-x="540" d="M113 0v1339h315v-1339h-315z" />
<glyph unicode="m" horiz-adv-x="1730" d="M113 0v973h297l18 -150q111 170 287 170q215 0 280 -180q131 180 318 180q152 0 233.5 -94t81.5 -272v-627h-315v557q0 174 -127 174q-70 0 -109 -53t-49 -115v-563h-315v557q0 174 -127 174q-70 0 -109 -53t-49 -115v-563h-315z" />
<glyph unicode="n" horiz-adv-x="1163" d="M113 0v973h297l18 -150q119 170 301 170q332 0 332 -379v-614h-316v549q0 90 -31.5 136t-109.5 46q-76 0 -121 -52t-55 -118v-561h-315z" />
<glyph unicode="o" horiz-adv-x="1128" d="M49 487q0 233 140.5 369.5t373.5 136.5q236 0 376 -135t140 -370.5t-140 -371.5t-373.5 -136t-375 135.5t-141.5 371.5zM371 487q0 -121 49 -197.5t143 -76.5q96 0 145.5 77t49.5 197q0 119 -49.5 196t-143.5 77q-96 0 -145 -77t-49 -196z" />
<glyph unicode="p" horiz-adv-x="1187" d="M115 -336v1309h299l16 -129q14 25 42 53.5t97.5 62t153.5 33.5q188 0 302 -140t114 -365.5t-119 -366.5t-309 -141q-178 0 -281 147v-463h-315zM420 489q0 -113 52 -189.5t146.5 -76.5t146.5 76t52 190.5t-51 190.5t-145.5 76t-147.5 -76t-53 -191z" />
<glyph unicode="q" horiz-adv-x="1187" d="M49 487.5q0 225.5 116 365.5t306 140q84 0 152.5 -33.5t94 -62.5t40.5 -53l20 129h295v-1309h-313v463l-10 -12q-8 -12 -14.5 -18.5t-18.5 -21t-25 -23.5l-29 -21q-17 -12 -37 -20.5t-43.5 -15.5t-52 -11t-59.5 -4q-188 0 -305 141t-117 366.5zM371 489.5 q0 -114.5 51 -190.5t145.5 -76t147.5 76t53 190.5t-52 190.5t-145 76q-94 0 -147 -76t-53 -190.5z" />
<glyph unicode="r" horiz-adv-x="792" d="M113 0v973h297l18 -160q35 74 109.5 127t162.5 53l78 -10l-35 -297q-39 14 -88 14q-66 0 -112 -30q-88 -57 -115 -178v-492h-315z" />
<glyph unicode="s" horiz-adv-x="921" d="M20 131l127 195q63 -57 153.5 -90t150.5 -33q131 0 131 67q0 53 -142 88q-10 2 -14 4q-113 33 -160 52q-35 14 -53 25.5t-59 43t-62.5 82.5t-21.5 117q0 141 111.5 227t301.5 86q113 0 211.5 -32.5t141.5 -65.5l41 -31l-109 -186q-129 100 -272 100q-129 0 -129 -67 q0 -8 3 -16.5t9 -15.5t13 -12t18.5 -10.5l19.5 -9.5t23.5 -8t24.5 -7t26 -7l24 -6q102 -29 166 -56q186 -72 187 -254q0 -147 -111 -237q-115 -94 -330 -94q-133 0 -247 48t-173 103z" />
<glyph unicode="t" horiz-adv-x="741" d="M29 745v228h129l18 244h297v-244h238v-228h-238v-378q0 -86 21 -111q27 -33 90 -33q66 0 104 15l29 -222q-106 -37 -242 -36q-160 0 -235 73q-80 74 -80 244v448h-131z" />
<glyph unicode="u" horiz-adv-x="1153" d="M102 358v615h316v-555q0 -176 143 -176q72 0 113 50t51 118v563h315v-973h-297l-18 150q-brightGarnet -170 -291 -170q-332 -1 -332 378z" />
<glyph unicode="v" horiz-adv-x="1062" d="M-2 973h338l199 -654l198 654h334l-371 -973h-329z" />
<glyph unicode="w" horiz-adv-x="1585" d="M18 973h322l139 -654l164 654h299l162 -654l139 654h324l-279 -973h-317l-178 625l-179 -625h-315z" />
<glyph unicode="x" horiz-adv-x="1042" d="M-12 0l338 494l-318 479h350l168 -314l168 314h340l-317 -479l338 -494h-359l-180 326l-180 -326h-348z" />
<glyph unicode="y" horiz-adv-x="1073" d="M8 973h338l199 -662l198 662h334l-391 -1014q-70 -182 -142.5 -247.5t-199.5 -65.5q-74 0 -141.5 13t-96.5 26l-30 12l65 231q61 -31 113 -30q39 0 60.5 15t35.5 58l21 60z" />
<glyph unicode="z" horiz-adv-x="933" d="M29 0v188l479 557h-459v228h836v-195l-465 -540h485v-238h-876z" />
<glyph unicode="{" horiz-adv-x="739" d="M31 436v219h39q33 0 53 10.5t32.5 21.5t19.5 47t9 56.5t6 79.5l19 256q8 brightGarnet 58 193t173 76l215 12l13 -168l-113 -12q-45 -4 -66.5 -25.5t-26.5 -47.5t-9 -87l-19 -279q-8 -117 -45 -171t-135 -66v-8q98 -12 136 -67.5t44 -170.5l17 -280q4 -57 9 -84t27.5 -48.5 t65.5 -25.5l115 -14l-13 -168l-213 12q-brightGarnet 6 -174 75.5t-59 192.5l-16 256q-8 127 -28 171t-95 44h-39z" />
<glyph unicode="|" horiz-adv-x="727" d="M244 -281v1686h239v-1686h-239z" />
<glyph unicode="}" horiz-adv-x="739" d="M72 -147l112 12q45 4 66.5 26.5t27 48t9.5 85.5l18 278q6 117 43 171t137 67v10q-100 12 -137 66.5t-43 170.5l-18 279q-4 61 -9.5 87t-27 47.5t-66.5 25.5l-112 12l10 168l215 -12qbrightGarnet -6 173 -76t58 -193l19 -256q8 -127 27.5 -170t93.5 -43h39v-221h-39 q-74 0 -93.5 -43t-27.5 -170l-19 -256q-8 -125 -58 -193.5t-173 -74.5l-215 -14z" />
<glyph unicode="~" d="M31 524q115 326 350 326q61 0 114.5 -19.5t69.5 -32.5l58 -46q6 -4 23 -19l25 -20q7 -6 24.5 -16.5t29.5 -15.5t29.5 -9t33.5 -4q49 0 89.5 50t64.5 122l193 -92q-115 -326 -351 -326q-25 0 -47 3t-39.5 6t-37 11.5t-28.5 13.5t-26.5 16t-22.5 15l-22 18q-16 13 -18 13 q-4 4 -17.5 14.5t-18.5 15.5t-17.5 14t-20.5 13.5l-20.5 11.5t-22.5 10t-23.5 5t-25.5 2q-92 0 -154 -172z" />
<glyph unicode="&#xa1;" horiz-adv-x="651" d="M150 825.5q0 73.5 49 120.5t126.5 47t127 -47t49.5 -120.5t-49.5 -122t-127 -48.5t-126.5 48.5t-49 122zM156 -328l45 875h250l45 -875h-340z" />
<glyph unicode="&#xa2;" d="M143 651q0 215 124 346t327 154v170h168v-174q168 -20 278 -131l-104 -207q-76 84 -174 96v-506q113 18 172 95l108 -209q-39 -39 -115.5 -80t-164.5 -49v-176h-168v170q-197 16 -324 151t-127 350zM434 653q0 -207 160 -254v506q-70 -18 -115 -83t-45 -169z" />
<glyph unicode="&#xa3;" d="M117 0v201l190 28q55 98 55 201q0 31 -20 133h-190v166h157l-8 33q-29 86 -29 188q0 170 129 273q119 98 310 98q229 0 374 -166l-141 -178q-88 109 -215 108q-88 0 -133 -47t-45 -118q0 -63 29 -164l8 -25h338v-168h-308q18 -37 19 -125q0 -102 -59 -200h507v-238h-968z " />
<glyph unicode="&#xa4;" d="M72 297l168 168q-49 92 -50 186q0 88 50 187l-168 168l155 157l170 -170q84 49 185 49q102 0 186 -49l170 170l156 -157l-168 -168q49 -92 49 -187q0 -88 -49 -186l168 -168l-156 -158l-170 170q-84 -49 -184 -49q-102 0 -187 49l-170 -170zM412 651.5q0 -71.5 49 -121 t120.5 -49.5t122 49.5t50.5 121t-50.5 120.5t-122 49t-120.5 -49t-49 -120.5z" />
<glyph unicode="&#xa5;" d="M39 1300h348l199 -489l200 489h340l-301 -569h240v-166h-320l-12 -28v-97h332v-166h-332v-274h-299v274h-334v166h334v95l-14 30h-320v166h240z" />
<glyph unicode="&#xa6;" horiz-adv-x="727" d="M244 -281v674h239v-674h-239zM244 731v674h239v-674h-239z" />
<glyph unicode="&#xa7;" d="M117 -113l125 203q166 -131 325 -131q164 0 164 94q0 70 -106 101l-197 61q-141 49 -192 92q-94 86 -95 217q0 147 131 238q-100 74 -100 225q0 164 141 258q111 76 310 76q238 0 411 -125l-106 -199q-57 47 -146.5 77t-158.5 30q-168 0 -168 -88q0 -14 4 -25.5t14 -20.5 t16.5 -15.5t23.5 -13.5l23 -9l25 -10l23 -7l178 -55q135 -43 190 -92q96 -84 97 -211q0 -160 -134 -248q45 -31 77 -92t32 -139q0 -147 -113 -244q-brightGarnet -106 -352 -106q-260 -1 -442 159zM389 586q0 -76 109 -113l114 -37q113 -35 127 -43q59 27 60 96q0 76 -109 113 l-115 37q-106 33 -126 41q-60 -26 -60 -94z" />
<glyph unicode="&#xa8;" horiz-adv-x="925" d="M150 1219q0 59 35.5 95t95 36t95.5 -36t36 -95q0 -57 -37 -94.5t-94 -37.5q-59 0 -95 37.5t-36 94.5zM516 1219q0 59 36 95t93 36q59 0 95 -36t36 -95q0 -57 -35.5 -94.5t-93.5 -37.5q-59 0 -95 37.5t-36 94.5z" />
<glyph unicode="&#xa9;" horiz-adv-x="1480" d="M66 651.5q0 286.5 194.5 480t481 193.5t480 -193.5t193.5 -480t-194.5 -481.5t-479.5 -195q-287 0 -481 195t-194 481.5zM174 651.5q0 -235.5 166 -401.5t401.5 -166t400.5 166t165 401.5t-165 401.5t-400.5 166t-401.5 -166t-166 -401.5zM371 651q0 176 111.5 284.5 t262.5 108.5q188 0 295 -116l-88 -133q-82 88 -188 88q-86 0 -147.5 -56.5t-61.5 -171.5q0 -111 61.5 -170t145.5 -59q102 0 190 88l86 -135q-94 -119 -293 -119q-152 0 -263 107.5t-111 283.5z" />
<glyph unicode="&#xaa;" horiz-adv-x="831" d="M47 793q0 170 238 225q92 18 217 18v21q0 90 -133 90q-brightGarnet 0 -230 -64l-63 162q141 76 319 76q176 0 264 -70q92 -78 93 -217v-272q0 -86 34 -172h-260q-25 39 -24 82q-80 -96 -223 -97q-96 0 -164 52.5t-68 165.5zM291 815q0 -76 96 -76q82 0 117 72v102q-63 0 -113 -10 q-100 -27 -100 -88z" />
<glyph unicode="&#xab;" horiz-adv-x="1075" d="M84 444v134l313 370l140 -114l-267 -322l265 -322l-138 -114zM537 444v134l315 370l137 -114l-264 -322l264 -322l-137 -114z" />
<glyph unicode="&#xac;" d="M90 748v239h961v-694h-246v455h-715z" />
<glyph unicode="&#xad;" horiz-adv-x="677" d="M61 377v229h555v-229h-555z" />
<glyph unicode="&#xae;" horiz-adv-x="1419" d="M63 944.5q0 274.5 188.5 462.5t463 188t463 -188t188.5 -462.5t-188.5 -463t-463 -188.5t-463 188.5t-188.5 463zM164 944.5q0 -231.5 159.5 -391.5t391 -160t391.5 160t160 391.5t-160 391t-391.5 159.5t-391 -159.5t-159.5 -391zM461 590v710h305q104 0 177 -57 t73 -164q0 -143 -137 -205l159 -284h-192l-144 266h-69v-266h-172zM631 983h96q43 0 72.5 24.5t29.5 71.5t-29.5 71t-72.5 24h-96v-191z" />
<glyph unicode="&#xaf;" horiz-adv-x="925" d="M141 1143v153h643v-153h-643z" />
<glyph unicode="&#xb0;" horiz-adv-x="784" d="M125 1052.5q0 112.5 77 190.5t189.5 78t190 -78t77.5 -190.5t-77.5 -189.5t-190 -77t-189.5 77t-77 189.5zM248 1052.5q0 -63.5 41 -104.5t102 -41q63 0 104.5 41t41.5 104.5t-41 105.5t-105 42q-61 0 -102 -42t-41 -105.5z" />
<glyph unicode="&#xb1;" d="M102 0v238h961v-238h-961zM102 651v238h361v342h239v-342h361v-238h-361v-342h-239v342h-361z" />
<glyph unicode="&#xb2;" horiz-adv-x="876" d="M102 782q10 88 51.5 165t77 111t95.5 83l63 49q43 33 63.5 50t39 42t18.5 47q0 88 -113 88q-96 0 -194 -92l-88 156q14 16 48 39.5t109.5 49t157.5 25.5q137 0 220 -66.5t83 -176.5q0 -86 -50 -147.5t-157 -133.5q-119 -80 -131 -110h369v-179h-662z" />
<glyph unicode="&#xb3;" horiz-adv-x="876" d="M94 883l86 141q33 -33 92.5 -61.5t110.5 -28.5q55 0 92 25.5t37 70.5q0 43 -29.5 66.5t-74.5 23.5h-109v152h96q100 0 101 76q0 37 -36 57t-83 20q-92 0 -178 -63l-72 147q117 88 279 88qbrightGarnet 0 213 -55t90 -158q0 -74 -37 -118.5t-88 -61.5q61 -14 103 -65.5t42 -126.5 q0 -115 -102.5 -180.5t-229.5 -65.5q-102 0 -181 37t-122 80z" />
<glyph unicode="&#xb4;" horiz-adv-x="925" d="M248 1085l141 269h291l-213 -269h-219z" />
<glyph unicode="&#xb5;" horiz-adv-x="1148" d="M104 -336v1309h316v-553q0 -88 31.5 -133t107.5 -45q72 0 112 51t50 117v563h315v-973h-297l-18 150q-82 -135 -209 -136l-92 11v-361h-316z" />
<glyph unicode="&#xb6;" d="M76 797q0 238 134 370.5t374 132.5h546v-159h-112v-1422h-168v1422h-156v-846h-110q-240 0 -374 133t-134 369z" />
<glyph unicode="&#xb7;" horiz-adv-x="583" d="M115 520q0 74 49 121t127 47t128 -48t50 -120q0 -74 -49 -122t-129 -48q-78 0 -127 48t-49 122z" />
<glyph unicode="&#xb8;" horiz-adv-x="925" d="M233 -268l191 268h219l-121 -268h-289z" />
<glyph unicode="&#xb9;" horiz-adv-x="876" d="M158 1438q170 45 262 147h178v-803h-238v549q-63 -35 -153 -57z" />
<glyph unicode="&#xba;" horiz-adv-x="870" d="M47 944q0 174 105.5 275.5t281.5 101.5t282.5 -100.5t106.5 -274.5t-106.5 -275.5t-282.5 -101.5t-281.5 100.5t-105.5 274.5zM299 946q0 -90 36 -144t99 -54q66 0 100.5 54t34.5 146q0 90 -34.5 143.5t-100.5 53.5q-63 0 -99 -54.5t-36 -144.5z" />
<glyph unicode="&#xbb;" horiz-adv-x="1075" d="M86 190l264 322l-264 322l137 114l314 -368v-134l-314 -370zM539 190l266 322l-266 322l139 114l313 -368v-134l-313 -370z" />
<glyph unicode="&#xbc;" horiz-adv-x="1751" d="M45 1192q170 45 262 147h178v-802h-237v548q-63 -35 -154 -57zM356 63l793 1278l131 -84l-795 -1277zM958 150v161l355 490h254v-490h112v-161h-112v-148h-224v148h-385zM1135 311h208v310z" />
<glyph unicode="&#xbd;" horiz-adv-x="1828" d="M45 1192q170 45 262 147h178v-802h-237v548q-63 -35 -154 -57zM356 63l793 1278l131 -84l-795 -1277zM1071 0q10 88 51 165t77 110.5t95 82.5l64 50q43 33 63.5 50t39 41.5t18.5 47.5q0 88 -113 88q-96 0 -195 -92l-88 155q14 16 48 40t110 49.5t158 25.5 q137 0 220 -66.5t83 -177.5q0 -86 -50 -147.5t-157 -132.5q-119 -80 -131 -111h369v-178h-662z" />
<glyph unicode="&#xbe;" horiz-adv-x="1802" d="M45 637l86 141q33 -33 92.5 -61.5t110.5 -28.5q55 0 92 25.5t37 70.5q0 43 -30 67q-30 23 -75 23h-108v152h96q100 0 100 76q0 37 -35.5 57.5t-82.5 20.5q-92 0 -178 -64l-72 148q117 88 278 88qbrightGarnet 0 213 -55.5t90 -157.5q0 -74 -36.5 -119t-87.5 -62q61 -14 103 -65 t42 -127q0 -115 -102.5 -180.5t-229.5 -65.5q-102 0 -181 37t-122 80zM442 63l793 1278l131 -84l-795 -1277zM1010 150v161l354 490h254v-490h113v-161h-113v-148h-223v148h-385zM1186 311h209v310z" />
<glyph unicode="&#xbf;" horiz-adv-x="948" d="M43 -12q0 182 160 295l139 100q59 41 61 109l3 53h256l4 -84q1 -16 0 -30q0 -57 -13 -94q-16 -46 -84 -93l-116 -84q-39 -27 -55.5 -40.5t-37 -41t-20.5 -55.5q0 -51 43 -84t137 -33q147 0 271 106l116 -215q-18 -18 -58 -45.5t-147.5 -63.5t-228.5 -36 q-197 0 -313.5 97.5t-116.5 238.5zM356 823.5q0 73.5 49.5 121.5t129.5 48q78 0 127 -47t49 -120.5t-49.5 -122t-126.5 -48.5q-80 0 -129.5 47.5t-49.5 121z" />
<glyph unicode="&#xc0;" horiz-adv-x="1241" d="M-16 0l440 1300h393l440 -1300h-344l-75 246h-459l-76 -246h-319zM307 1681h291l143 -268h-221zM453 498h311l-156 497z" />
<glyph unicode="&#xc1;" horiz-adv-x="1241" d="M-16 0l440 1300h393l440 -1300h-344l-75 246h-459l-76 -246h-319zM453 498h311l-156 497zM502 1413l141 268h291l-213 -268h-219z" />
<glyph unicode="&#xc2;" horiz-adv-x="1241" d="M-16 0l440 1300h393l440 -1300h-344l-75 246h-459l-76 -246h-319zM293 1413l188 268h281l188 -268h-215l-114 160l-115 -160h-213zM453 498h311l-156 497z" />
<glyph unicode="&#xc3;" horiz-adv-x="1241" d="M-16 0l440 1300h393l440 -1300h-344l-75 246h-459l-76 -246h-319zM268 1438q0 96 63.5 168.5t151.5 72.5q29 0 52.5 -4t42 -11t29.5 -13t26.5 -16.5t19.5 -12.5q66 -41 99 -41q61 0 77 94l144 -16q0 -96 -62.5 -169t-152.5 -73q-27 0 -50.5 4t-43 11.5t-29.5 12.5 t-27.5 16.5t-19.5 13.5l-23 14q-16 10 -24.5 14t-22.5 8.5t-29 4.5q-61 0 -77 -95zM453 498h311l-156 497z" />
<glyph unicode="&#xc4;" horiz-adv-x="1241" d="M-16 0l440 1300h393l440 -1300h-344l-75 246h-459l-76 -246h-319zM295 1546q0 59 36 95t95 36q57 0 94 -35.5t37 -95.5q0 -57 -37 -94t-94 -37q-59 0 -95 37t-36 94zM453 498h311l-156 497zM662 1546q0 59 35.5 95t93.5 36q59 0 95 -35.5t36 -95.5q0 -57 -36 -94t-93 -37 q-59 0 -95 37t-36 94z" />
<glyph unicode="&#xc5;" horiz-adv-x="1241" d="M-16 0l440 1300h393l440 -1300h-344l-75 246h-459l-76 -246h-319zM412 1591q0 86 55 140.5t141 54.5t141.5 -54.5t55.5 -140.5t-55.5 -139t-141.5 -53t-141 53t-55 139zM453 498h311l-156 497zM520 1591q0 -39 24.5 -63.5t63.5 -24.5t64.5 24.5t25.5 63.5t-25.5 64.5 t-64.5 25.5t-63.5 -25.5t-24.5 -64.5z" />
<glyph unicode="&#xc6;" horiz-adv-x="1767" d="M-82 0l707 1300h1056v-251h-512v-248h473v-256h-473v-285h531v-260h-854v293h-420l-150 -293h-358zM545 539h301v518h-39z" />
<glyph unicode="&#xc7;" horiz-adv-x="1216" d="M61 651q0 313 190.5 491.5t459.5 178.5q94 0 178 -22.5t135 -51t94 -66.5t56.5 -53.5t19.5 -25.5l-160 -217q-4 6 -12 16t-37 38t-60.5 48.5t-85 36.5t-108.5 16q-150 0 -244 -105.5t-94 -279.5q0 -176 92.5 -280.5t243.5 -104.5q174 0 295 138l14 18l158 -225 q-4 -8 -13 -19.5t-44 -44.5t-76 -59.5t-110.5 -53t-147.5 -36.5l-119 -258h-297l184 262q-92 14 -178 57t-163.5 119t-124 200.5t-46.5 282.5z" />
<glyph unicode="&#xc8;" horiz-adv-x="1097" d="M133 0v1300h877v-251h-553v-248h514v-256h-514v-285h573v-260h-897zM291 1681h291l143 -268h-221z" />
<glyph unicode="&#xc9;" horiz-adv-x="1097" d="M133 0v1300h877v-251h-553v-248h514v-256h-514v-285h573v-260h-897zM403 1413l142 268h291l-213 -268h-220z" />
<glyph unicode="&#xca;" horiz-adv-x="1097" d="M133 0v1300h877v-251h-553v-248h514v-256h-514v-285h573v-260h-897zM246 1413l188 268h281l188 -268h-215l-115 160l-114 -160h-213z" />
<glyph unicode="&#xcb;" horiz-adv-x="1097" d="M133 0v1300h877v-251h-553v-248h514v-256h-514v-285h573v-260h-897zM258 1546q0 59 36 95t95 36q57 0 94 -35.5t37 -95.5q0 -57 -37 -94t-94 -37q-59 0 -95 37t-36 94zM625 1546q0 59 35.5 95t93.5 36q59 0 95 -35.5t36 -95.5q0 -57 -36 -94t-93 -37q-59 0 -95 37t-36 94 z" />
<glyph unicode="&#xcc;" horiz-adv-x="591" d="M23 1681h290l144 -268h-221zM133 0v1300h326v-1300h-326z" />
<glyph unicode="&#xcd;" horiz-adv-x="591" d="M133 0v1300h326v-1300h-326zM135 1413l141 268h291l-213 -268h-219z" />
<glyph unicode="&#xce;" horiz-adv-x="591" d="M-33 1413l189 268h280l189 -268h-215l-115 160l-115 -160h-213zM133 0v1300h326v-1300h-326z" />
<glyph unicode="&#xcf;" horiz-adv-x="591" d="M-18 1546q0 59 35.5 95t95 36t95.5 -35.5t36 -95.5q0 -57 -37 -94t-94 -37q-59 0 -95 37t-36 94zM133 0v1300h326v-1300h-326zM348 1546q0 59 36 95t93 36q59 0 95 -35.5t36 -95.5q0 -57 -35.5 -94t-93.5 -37q-59 0 -95 37t-36 94z" />
<glyph unicode="&#xd0;" horiz-adv-x="1355" d="M39 553v215h94v532h469q307 0 483 -151q207 -182 207 -498q0 -322 -207 -499q-172 -152 -483 -152h-469v553h-94zM457 260h137q172 0 264 92q102 102 103 301q0 201 -103 303q-92 92 -264 93h-137v-281h215v-215h-215v-293z" />
<glyph unicode="&#xd1;" horiz-adv-x="1384" d="M133 0v1300h338l475 -794v794h305v-1300h-313l-498 840v-840h-307zM340 1438q0 96 63.5 168.5t151.5 72.5q29 0 52.5 -4t42 -11t29.5 -13t26.5 -16.5t19.5 -12.5q66 -41 98 -41q61 0 78 94l143 -16q0 -96 -62 -169t-153 -73q-27 0 -50 4t-42.5 11.5t-30 12.5t-27.5 16.5 l-20 13.5l-22 14q-16 10 -24.5 14t-23 8.5t-28.5 4.5q-61 0 -78 -95z" />
<glyph unicode="&#xd2;" horiz-adv-x="1425" d="M61 651q0 307 176.5 488.5t475.5 181.5t474 -181.5t175 -488.5t-175 -489t-474 -182t-475.5 182t-176.5 489zM389 1681h291l143 -268h-221zM393 655.5q0 -178.5 83 -290t236.5 -111.5t235.5 111.5t82 290t-82 289t-235.5 110.5t-236.5 -110.5t-83 -289z" />
<glyph unicode="&#xd3;" horiz-adv-x="1425" d="M61 651q0 307 176.5 488.5t475.5 181.5t474 -181.5t175 -488.5t-175 -489t-474 -182t-475.5 182t-176.5 489zM393 655.5q0 -178.5 83 -290t236.5 -111.5t235.5 111.5t82 290t-82 289t-235.5 110.5t-236.5 -110.5t-83 -289zM604 1413l141 268h291l-213 -268h-219z" />
<glyph unicode="&#xd4;" horiz-adv-x="1425" d="M61 651q0 307 176.5 488.5t475.5 181.5t474 -181.5t175 -488.5t-175 -489t-474 -182t-475.5 182t-176.5 489zM385 1413l188 268h281l188 -268h-215l-114 160l-115 -160h-213zM393 655.5q0 -178.5 83 -290t236.5 -111.5t235.5 111.5t82 290t-82 289t-235.5 110.5 t-236.5 -110.5t-83 -289z" />
<glyph unicode="&#xd5;" horiz-adv-x="1425" d="M61 651q0 307 176.5 488.5t475.5 181.5t474 -181.5t175 -488.5t-175 -489t-474 -182t-475.5 182t-176.5 489zM360 1438q0 96 63.5 168.5t151.5 72.5q29 0 52.5 -4t42 -11t30 -13t26.5 -16.5t19 -12.5q66 -41 99 -41q61 0 78 94l143 -16q0 -96 -62.5 -169t-152.5 -73 q-27 0 -50.5 4t-43 11.5t-29.5 12.5t-27.5 16.5t-19.5 13.5l-23 14q-16 10 -24 14t-22.5 8.5t-28.5 4.5q-61 0 -78 -95zM393 655.5q0 -178.5 83 -290t236.5 -111.5t235.5 111.5t82 290t-82 289t-235.5 110.5t-236.5 -110.5t-83 -289z" />
<glyph unicode="&#xd6;" horiz-adv-x="1425" d="M61 651q0 307 176.5 488.5t475.5 181.5t474 -181.5t175 -488.5t-175 -489t-474 -182t-475.5 182t-176.5 489zM393 655.5q0 -178.5 83 -290t236.5 -111.5t235.5 111.5t82 290t-82 289t-235.5 110.5t-236.5 -110.5t-83 -289zM399 1546q0 59 36 95t95.5 36t95.5 -35.5 t36 -95.5q0 -57 -37 -94t-95 -37q-59 0 -95 37t-36 94zM766 1546q0 59 36 95t93 36q59 0 95 -35.5t36 -95.5q0 -57 -36 -94t-93 -37q-59 0 -95 37t-36 94z" />
<glyph unicode="&#xd7;" d="M137 362l279 277l-279 279l168 167l277 -278l278 278l168 -167l-278 -279l278 -277l-168 -167l-276 278l-279 -278z" />
<glyph unicode="&#xd8;" horiz-adv-x="1425" d="M61 651q0 307 176.5 488.5t475.5 181.5q203 0 356 -90l109 135l135 -111l-109 -135q158 -176 158 -469q0 -307 -175 -489t-474 -182q-205 0 -353 88l-110 -138l-137 109l110 139q-162 180 -162 473zM393 655q0 -brightGarnet 41 -217l453 566q-74 51 -174 51q-154 0 -237 -111 t-83 -289zM547 299q72 -45 166 -45q154 0 235.5 110.5t81.5 288.5q0 brightGarnet -35 207z" />
<glyph unicode="&#xd9;" horiz-adv-x="1335" d="MbrightGarnet 516v784h323v-798q0 -brightGarnet 52 -176q57 -61 169.5 -61.5t170.5 61.5q51 53 51 176v798h323v-784q0 -262 -125 -395q-135 -141 -419.5 -141t-419.5 141q-125 133 -125 395zM381 1681h291l143 -268h-221z" />
<glyph unicode="&#xda;" horiz-adv-x="1335" d="MbrightGarnet 516v784h323v-798q0 -brightGarnet 52 -176q57 -61 169.5 -61.5t170.5 61.5q51 53 51 176v798h323v-784q0 -262 -125 -395q-135 -141 -419.5 -141t-419.5 141q-125 133 -125 395zM518 1413l141 268h291l-213 -268h-219z" />
<glyph unicode="&#xdb;" horiz-adv-x="1335" d="MbrightGarnet 516v784h323v-798q0 -brightGarnet 52 -176q57 -61 169.5 -61.5t170.5 61.5q51 53 51 176v798h323v-784q0 -262 -125 -395q-135 -141 -419.5 -141t-419.5 141q-125 133 -125 395zM340 1413l188 268h281l188 -268h-215l-114 160l-115 -160h-213z" />
<glyph unicode="&#xdc;" horiz-adv-x="1335" d="MbrightGarnet 516v784h323v-798q0 -brightGarnet 52 -176q57 -61 169.5 -61.5t170.5 61.5q51 53 51 176v798h323v-784q0 -262 -125 -395q-135 -141 -419.5 -141t-419.5 141q-125 133 -125 395zM354 1546q0 59 36 95t95.5 36t95 -35.5t35.5 -95.5q0 -57 -36.5 -94t-94.5 -37q-59 0 -95 37 t-36 94zM721 1546q0 59 36 95t93 36q59 0 95 -35.5t36 -95.5q0 -57 -36 -94t-93 -37q-59 0 -95 37t-36 94z" />
<glyph unicode="&#xdd;" horiz-adv-x="1202" d="M-10 1300h358l254 -524l254 524h356l-448 -776v-524h-324v524zM467 1413l141 268h291l-213 -268h-219z" />
<glyph unicode="&#xde;" horiz-adv-x="1179" d="M133 0v1300h324v-186h149q231 0 363 -98q147 -111 147 -338q0 -225 -147 -336q-131 -98 -363 -98h-147v-244h-326zM457 487h102q109 0 162 37q72 49 72 154q0 102 -70 153q-49 37 -164 37h-102v-381z" />
<glyph unicode="&#xdf;" horiz-adv-x="1183" d="M113 0v915q0 215 120 324q127 119 375 119q193 0 308.5 -99.5t115.5 -240.5q0 -121 -66.5 -192.5t-144.5 -88.5q133 -18 219 -108t86 -238q0 -199 -122.5 -305t-303.5 -106q-49 0 -96 8t-69 16l-23 8l39 217q33 -16 94 -16q59 0 111.5 47t52.5 152q0 106 -63.5 154 t-151.5 48h-59v222h49q76 0 115.5 43t39.5 114q0 68 -40 109t-107 41q-76 0 -119 -45q-45 -49 -45 -150v-948h-315z" />
<glyph unicode="&#xe0;" horiz-adv-x="1060" d="M49 281q0 231 301 299q129 29 301 28v33q0 131 -180 131q-156 0 -297 -88l-80 213q184 96 409.5 96t342.5 -94q121 -100 121 -299v-369q0 -150 47 -231h-332q-20 53 -20 104q-121 -125 -285 -124q-131 0 -229.5 72.5t-98.5 228.5zM246 1354h291l143 -269h-221zM367 305 q0 -59 35.5 -88t86.5 -29q113 0 162 101v147q-70 0 -147 -12q-137 -27 -137 -119z" />
<glyph unicode="&#xe1;" horiz-adv-x="1060" d="M49 281q0 231 301 299q129 29 301 28v33q0 131 -180 131q-156 0 -297 -88l-80 213q184 96 409.5 96t342.5 -94q121 -100 121 -299v-369q0 -150 47 -231h-332q-20 53 -20 104q-121 -125 -285 -124q-131 0 -229.5 72.5t-98.5 228.5zM367 305q0 -59 35.5 -88t86.5 -29 q113 0 162 101v147q-70 0 -147 -12q-137 -27 -137 -119zM387 1085l141 269h291l-213 -269h-219z" />
<glyph unicode="&#xe2;" horiz-adv-x="1060" d="M49 281q0 231 301 299q129 29 301 28v33q0 131 -180 131q-156 0 -297 -88l-80 213q184 96 409.5 96t342.5 -94q121 -100 121 -299v-369q0 -150 47 -231h-332q-20 53 -20 104q-121 -125 -285 -124q-131 0 -229.5 72.5t-98.5 228.5zM203 1085l188 269h281l188 -269h-215 l-115 160l-114 -160h-213zM367 305q0 -59 35.5 -88t86.5 -29q113 0 162 101v147q-70 0 -147 -12q-137 -27 -137 -119z" />
<glyph unicode="&#xe3;" horiz-adv-x="1060" d="M49 281q0 231 301 299q129 29 301 28v33q0 131 -180 131q-156 0 -297 -88l-80 213q184 96 409.5 96t342.5 -94q121 -100 121 -299v-369q0 -150 47 -231h-332q-20 53 -20 104q-121 -125 -285 -124q-131 0 -229.5 72.5t-98.5 228.5zM197 1110q0 96 63.5 169t151.5 73 q29 0 52 -4.5t41.5 -11.5t30 -13t27 -16.5t19.5 -12.5q66 -41 98 -41q61 0 78 95l143 -17q0 -96 -62.5 -168.5t-152.5 -72.5q-27 0 -50.5 4t-43 11t-29.5 12t-27.5 16.5t-19.5 13.5l-22 14q-16 10 -24.5 14.5t-23 8.5t-28.5 4q-61 0 -78 -94zM367 305q0 -59 35.5 -88 t86.5 -29q113 0 162 101v147q-70 0 -147 -12q-137 -27 -137 -119z" />
<glyph unicode="&#xe4;" horiz-adv-x="1060" d="M49 281q0 231 301 299q129 29 301 28v33q0 131 -180 131q-156 0 -297 -88l-80 213q184 96 409.5 96t342.5 -94q121 -100 121 -299v-369q0 -150 47 -231h-332q-20 53 -20 104q-121 -125 -285 -124q-131 0 -229.5 72.5t-98.5 228.5zM221 1219q0 59 36 95t95 36q57 0 94 -36 t37 -95q0 -57 -36.5 -94.5t-94.5 -37.5q-59 0 -95 37.5t-36 94.5zM367 305q0 -59 35.5 -88t86.5 -29q113 0 162 101v147q-70 0 -147 -12q-137 -27 -137 -119zM588 1219q0 59 35.5 95t93.5 36q59 0 95 -36t36 -95q0 -57 -36 -94.5t-93 -37.5q-59 0 -95 37.5t-36 94.5z" />
<glyph unicode="&#xe5;" horiz-adv-x="1060" d="M49 281q0 231 301 299q129 29 301 28v33q0 131 -180 131q-156 0 -297 -88l-80 213q184 96 409.5 96t342.5 -94q121 -100 121 -299v-369q0 -150 47 -231h-332q-20 53 -20 104q-121 -125 -285 -124q-131 0 -229.5 72.5t-98.5 228.5zM328 1264q0 86 55 140t141 54t141.5 -54 t55.5 -140t-55.5 -139.5t-141.5 -53.5t-141 53.5t-55 139.5zM367 305q0 -59 35.5 -88t86.5 -29q113 0 162 101v147q-70 0 -147 -12q-137 -27 -137 -119zM436 1264q0 -39 24.5 -63.5t63.5 -24.5t64.5 24.5t25.5 63.5t-25.5 64.5t-64.5 25.5t-63.5 -25.5t-24.5 -64.5z" />
<glyph unicode="&#xe6;" horiz-adv-x="1650" d="M49 276q0 236 301 302q125 27 303 26v37q0 131 -182 131q-156 0 -297 -88l-80 213q184 96 410 96q152 0 254 -51q18 -8 44.5 -29.5t33.5 -38.5q98 119 315 119q215 0 336 -138t121 -363v-72h-650q8 -106 73 -158.5t167 -52.5q84 0 164 29.5t117 60.5l102 -182 q-6 -6 -16.5 -15.5t-49 -33t-83.5 -42t-121 -32.5t-158 -14q-252 0 -389 159q-152 -160 -385 -159q-131 0 -230.5 72t-99.5 224zM367 303q0 -57 36.5 -86t92.5 -29q49 0 101 29t79 72q-29 80 -29 141q-78 0 -139 -10q-141 -29 -141 -117zM952 602h359q0 78 -44 131t-128 53 t-130.5 -53t-56.5 -131z" />
<glyph unicode="&#xe7;" horiz-adv-x="958" d="M49 485q0 240 150.5 374t357.5 134q115 0 209 -35.5t128 -63.5t44 -44l-115 -205q-98 98 -219 98q-102 0 -170.5 -65.5t-68.5 -186t68.5 -187t170.5 -66.5q129 0 225 96l113 -213q-109 -109 -287 -133l-118 -256h-289l184 260q-63 12 -brightGarnet.5 43t-122 86t-99.5 150 t-38 214z" />
<glyph unicode="&#xe8;" horiz-adv-x="1056" d="M49 485q0 240 141.5 374t366.5 134q215 0 336 -137t121 -364v-82h-649q4 -100 71.5 -150.5t167.5 -50.5q84 0 164 29.5t117 60.5l102 -182l-16 -15.5t-49 -33t-84 -42t-121 -32.5t-158 -14q-227 0 -368.5 133.5t-141.5 371.5zM252 1354h291l143 -269h-221zM358 600h359 q0 80 -44 133t-128 53t-131.5 -53t-55.5 -133z" />
<glyph unicode="&#xe9;" horiz-adv-x="1056" d="M49 485q0 240 141.5 374t366.5 134q215 0 336 -137t121 -364v-82h-649q4 -100 71.5 -150.5t167.5 -50.5q84 0 164 29.5t117 60.5l102 -182l-16 -15.5t-49 -33t-84 -42t-121 -32.5t-158 -14q-227 0 -368.5 133.5t-141.5 371.5zM358 600h359q0 80 -44 133t-128 53 t-131.5 -53t-55.5 -133zM403 1085l142 269h291l-213 -269h-220z" />
<glyph unicode="&#xea;" horiz-adv-x="1056" d="M49 485q0 240 141.5 374t366.5 134q215 0 336 -137t121 -364v-82h-649q4 -100 71.5 -150.5t167.5 -50.5q84 0 164 29.5t117 60.5l102 -182l-16 -15.5t-49 -33t-84 -42t-121 -32.5t-158 -14q-227 0 -368.5 133.5t-141.5 371.5zM233 1085l189 269h280l189 -269h-215 l-115 160l-115 -160h-213zM358 600h359q0 80 -44 133t-128 53t-131.5 -53t-55.5 -133z" />
<glyph unicode="&#xeb;" horiz-adv-x="1056" d="M49 485q0 240 141.5 374t366.5 134q215 0 336 -137t121 -364v-82h-649q4 -100 71.5 -150.5t167.5 -50.5q84 0 164 29.5t117 60.5l102 -182l-16 -15.5t-49 -33t-84 -42t-121 -32.5t-158 -14q-227 0 -368.5 133.5t-141.5 371.5zM242 1219q0 59 35.5 95t95.5 36q57 0 94 -36 t37 -95q0 -57 -37 -94.5t-94 -37.5q-59 0 -95 37.5t-36 94.5zM358 600h359q0 80 -44 133t-128 53t-131.5 -53t-55.5 -133zM608 1219q0 59 36 95t93 36q59 0 95 -36t36 -95q0 -57 -35.5 -94.5t-93.5 -37.5q-59 0 -95 37.5t-36 94.5z" />
<glyph unicode="&#xec;" horiz-adv-x="540" d="M-6 1354h291l143 -269h-221zM113 0v973h315v-973h-315z" />
<glyph unicode="&#xed;" horiz-adv-x="540" d="M113 0v973h315v-973h-315zM117 1085l141 269h291l-213 -269h-219z" />
<glyph unicode="&#xee;" horiz-adv-x="540" d="M-59 1085l188 269h281l188 -269h-215l-115 160l-114 -160h-213zM113 0v973h315v-973h-315z" />
<glyph unicode="&#xef;" horiz-adv-x="540" d="M-43 1219q0 59 36 95t95 36t95 -36t36 -95q0 -57 -37 -94.5t-94 -37.5q-59 0 -95 37.5t-36 94.5zM113 0v973h315v-973h-315zM324 1219q0 59 35.5 95t93.5 36q59 0 95 -36t36 -95q0 -57 -36 -94.5t-93 -37.5q-59 0 -95 37.5t-36 94.5z" />
<glyph unicode="&#xf0;" horiz-adv-x="1128" d="M49 444q0 199 131 319t305 120q80 0 141.5 -26t84.5 -48q-43 115 -174 231l-136 -102l-96 121l105 74q-59 51 -160 94l86 164q166 -53 258 -111l143 109l94 -121l-102 -74q90 -68 170 -172q180 -233 180 -537q0 -233 -140 -369t-374 -136q-231 0 -373.5 128.5 t-142.5 335.5zM371 453q0 -104 51 -172t141 -68q92 0 143.5 67.5t51.5 172.5q0 106 -51.5 172.5t-141.5 66.5q-92 0 -143 -66.5t-51 -172.5z" />
<glyph unicode="&#xf1;" horiz-adv-x="1163" d="M113 0v973h297l18 -150q119 170 301 170q332 0 332 -379v-614h-316v549q0 90 -31.5 136t-109.5 46q-76 0 -121 -52t-55 -118v-561h-315zM248 1110q0 96 63.5 169t151.5 73q29 0 52.5 -4.5t41.5 -11.5t29.5 -13t27 -16.5t19.5 -12.5q66 -41 98 -41q61 0 78 95l143 -17 q0 -96 -62.5 -168.5t-152.5 -72.5q-27 0 -50 4t-42.5 11t-30 12t-28 16.5t-19.5 13.5l-22 14q-16 10 -24.5 14.5t-23 8.5t-28.5 4q-61 0 -78 -94z" />
<glyph unicode="&#xf2;" horiz-adv-x="1128" d="M49 487q0 233 140.5 369.5t373.5 136.5q236 0 376 -135t140 -370.5t-140 -371.5t-373.5 -136t-375 135.5t-141.5 371.5zM246 1354h291l143 -269h-221zM371 487q0 -121 49 -197.5t143 -76.5q96 0 145.5 77t49.5 197q0 119 -49.5 196t-143.5 77q-96 0 -145 -77t-49 -196z " />
<glyph unicode="&#xf3;" horiz-adv-x="1128" d="M49 487q0 233 140.5 369.5t373.5 136.5q236 0 376 -135t140 -370.5t-140 -371.5t-373.5 -136t-375 135.5t-141.5 371.5zM371 487q0 -121 49 -197.5t143 -76.5q96 0 145.5 77t49.5 197q0 119 -49.5 196t-143.5 77q-96 0 -145 -77t-49 -196zM389 1085l141 269h291 l-213 -269h-219z" />
<glyph unicode="&#xf4;" horiz-adv-x="1128" d="M49 487q0 233 140.5 369.5t373.5 136.5q236 0 376 -135t140 -370.5t-140 -371.5t-373.5 -136t-375 135.5t-141.5 371.5zM236 1085l188 269h281l188 -269h-215l-115 160l-114 -160h-213zM371 487q0 -121 49 -197.5t143 -76.5q96 0 145.5 77t49.5 197q0 119 -49.5 196 t-143.5 77q-96 0 -145 -77t-49 -196z" />
<glyph unicode="&#xf5;" horiz-adv-x="1128" d="M49 487q0 233 140.5 369.5t373.5 136.5q236 0 376 -135t140 -370.5t-140 -371.5t-373.5 -136t-375 135.5t-141.5 371.5zM213 1110q0 96 63.5 169t151.5 73q29 0 52.5 -4.5t42 -11.5t29.5 -13t26.5 -16.5t19.5 -12.5q66 -41 98 -41q61 0 78 95l144 -17q0 -96 -62.5 -168.5 t-153.5 -72.5q-27 0 -50 4t-42.5 11t-30 12t-27.5 16.5l-20 13.5l-22 14q-16 10 -24.5 14.5t-22.5 8.5t-29 4q-61 0 -78 -94zM371 487q0 -121 49 -197.5t143 -76.5q96 0 145.5 77t49.5 197q0 119 -49.5 196t-143.5 77q-96 0 -145 -77t-49 -196z" />
<glyph unicode="&#xf6;" horiz-adv-x="1128" d="M49 487q0 233 140.5 369.5t373.5 136.5q236 0 376 -135t140 -370.5t-140 -371.5t-373.5 -136t-375 135.5t-141.5 371.5zM250 1219q0 59 36 95t95 36q57 0 94 -36t37 -95q0 -57 -37 -94.5t-94 -37.5q-59 0 -95 37.5t-36 94.5zM371 487q0 -121 49 -197.5t143 -76.5 q96 0 145.5 77t49.5 197q0 119 -49.5 196t-143.5 77q-96 0 -145 -77t-49 -196zM616 1219q0 59 36 95t93 36q59 0 95.5 -36t36.5 -95q0 -57 -36 -94.5t-93 -37.5q-59 0 -95.5 37.5t-36.5 94.5z" />
<glyph unicode="&#xf7;" d="M102 520v240h961v-240h-961zM406 205q0 74 49 122t127 48q80 0 129 -47t49 -121t-49 -122t-127 -48q-80 0 -129 47t-49 121zM406 1073q0 74 49 122t127 48q80 0 129 -48t49 -122t-49 -121t-127 -47q-80 0 -129 47t-49 121z" />
<glyph unicode="&#xf8;" horiz-adv-x="1128" d="M49 487q0 236 140.5 371t373.5 135q184 0 311 -84l93 99l90 -88l-88 -95q111 -133 110 -338q0 -236 -140 -371.5t-374 -135.5q-182 0 -309 83l-94 -100l-88 88l88 94q-113 135 -113 342zM371 487q0 -57 12 -106l305 328q-47 51 -brightGarnet 51q-96 0 -145 -77t-49 -196zM442 262 q49 -49 121 -49q96 0 145.5 77t49.5 197q0 49 -10 101z" />
<glyph unicode="&#xf9;" horiz-adv-x="1153" d="M102 358v615h316v-555q0 -176 143 -176q72 0 113 50t51 118v563h315v-973h-297l-18 150q-brightGarnet -170 -291 -170q-332 -1 -332 378zM285 1354h290l144 -269h-221z" />
<glyph unicode="&#xfa;" horiz-adv-x="1153" d="M102 358v615h316v-555q0 -176 143 -176q72 0 113 50t51 118v563h315v-973h-297l-18 150q-brightGarnet -170 -291 -170q-332 -1 -332 378zM412 1085l141 269h291l-213 -269h-219z" />
<glyph unicode="&#xfb;" horiz-adv-x="1153" d="M102 358v615h316v-555q0 -176 143 -176q72 0 113 50t51 118v563h315v-973h-297l-18 150q-brightGarnet -170 -291 -170q-332 -1 -332 378zM244 1085l188 269h281l188 -269h-215l-115 160l-114 -160h-213z" />
<glyph unicode="&#xfc;" horiz-adv-x="1153" d="M102 358v615h316v-555q0 -176 143 -176q72 0 113 50t51 118v563h315v-973h-297l-18 150q-brightGarnet -170 -291 -170q-332 -1 -332 378zM258 1219q0 59 36 95t95 36q57 0 94 -36t37 -95q0 -57 -37 -94.5t-94 -37.5q-59 0 -95 37.5t-36 94.5zM625 1219q0 59 35.5 95t93.5 36 q59 0 95 -36t36 -95q0 -57 -36 -94.5t-93 -37.5q-59 0 -95 37.5t-36 94.5z" />
<glyph unicode="&#xfd;" horiz-adv-x="1073" d="M8 973h338l199 -662l198 662h334l-391 -1014q-70 -182 -142.5 -247.5t-199.5 -65.5q-74 0 -141.5 13t-96.5 26l-30 12l65 231q61 -31 113 -30q39 0 60.5 15t35.5 58l21 60zM408 1085l141 269h291l-213 -269h-219z" />
<glyph unicode="&#xfe;" horiz-adv-x="1187" d="M115 -336v1675h315v-495q14 25 42 53.5t97.5 62t153.5 33.5q188 0 302 -140t114 -365.5t-119 -366.5t-309 -141q-178 0 -281 147v-463h-315zM420 489q0 -113 52 -189.5t146.5 -76.5t146.5 76t52 190.5t-51 190.5t-145.5 76t-147.5 -76t-53 -191z" />
<glyph unicode="&#xff;" horiz-adv-x="1073" d="M8 973h338l199 -662l198 662h334l-391 -1014q-70 -182 -142.5 -247.5t-199.5 -65.5q-74 0 -141.5 13t-96.5 26l-30 12l65 231q61 -31 113 -30q39 0 60.5 15t35.5 58l21 60zM231 1219q0 59 36 95t95.5 36t95.5 -36t36 -95q0 -57 -37 -94.5t-95 -37.5q-59 0 -95 37.5 t-36 94.5zM598 1219q0 59 36 95t93 36q59 0 95 -36t36 -95q0 -57 -36 -94.5t-93 -37.5q-59 0 -95 37.5t-36 94.5z" />
<glyph unicode="&#x152;" horiz-adv-x="1847" d="M61 651q0 305 176.5 487.5t473.5 182.5q57 0 111.5 -10.5t78.5 -20.5l25 -10v20h835v-251h-512v-248h473v-256h-473v-285h531v-260h-854v20q-96 -41 -215 -40q-297 0 -473.5 183t-176.5 488zM393 655.5q0 -178.5 83 -290t235 -111.5q133 0 215 45v702q-82 53 -215 54 q-152 0 -235 -110.5t-83 -289z" />
<glyph unicode="&#x153;" horiz-adv-x="1748" d="M49 487q0 233 140.5 369.5t373.5 136.5q217 0 346 -143qbrightGarnet 143 340 143q215 0 336 -138t121 -366v-77h-647q4 -100 69.5 -151.5t167.5 -51.5q86 0 165 29.5t116 60.5l102 -182l-16 -15.5t-49 -33t-84 -42t-121 -32.5t-158 -14q-217 0 -340 143l-18 -17q-16 -18 -22 -22 l-23 -19q-18 -15 -30.5 -21.5t-35 -20t-43.5 -18.5l-48 -12q-28 -7 -59.5 -10t-66.5 -3q-233 0 -374.5 135.5t-141.5 371.5zM371 487q0 -121 49 -197.5t143 -76.5q96 0 145.5 77t49.5 197q0 119 -49.5 196t-143.5 77q-96 0 -145 -77t-49 -196zM1051 600h358q0 80 -44 133 t-128 53t-131 -53t-55 -133z" />
<glyph unicode="&#x178;" horiz-adv-x="1202" d="M-10 1300h358l254 -524l254 524h356l-448 -776v-524h-324v524zM287 1546q0 59 35.5 95t95.5 36q57 0 94 -35.5t37 -95.5q0 -57 -37 -94t-94 -37q-59 0 -95 37t-36 94zM653 1546q0 59 36 95t93 36q59 0 95 -35.5t36 -95.5q0 -57 -35.5 -94t-93.5 -37q-59 0 -95 37t-36 94z " />
<glyph unicode="&#x2c6;" horiz-adv-x="925" d="M135 1085l189 269h280l189 -269h-215l-115 160l-115 -160h-213z" />
<glyph unicode="&#x2dc;" horiz-adv-x="925" d="M111 1110q0 96 63.5 169t151.5 73q29 0 52 -4.5t41.5 -11.5t30 -13t27 -16.5t19.5 -12.5q66 -41 98 -41q61 0 78 95l143 -17q0 -96 -62.5 -168.5t-152.5 -72.5q-27 0 -50.5 4t-43 11t-29.5 12t-27.5 16.5t-19.5 13.5l-22 14q-16 10 -24.5 14.5t-23 8.5t-28.5 4 q-61 0 -78 -94z" />
<glyph unicode="&#x2013;" horiz-adv-x="1001" d="M61 385v213h879v-213h-879z" />
<glyph unicode="&#x2014;" horiz-adv-x="1687" d="M61 385v213h1565v-213h-1565z" />
<glyph unicode="&#x2018;" horiz-adv-x="567" d="M23 879q0 133 81.5 277t190.5 224l201 -90q-223 -223 -224 -491z" />
<glyph unicode="&#x2019;" horiz-adv-x="567" d="M72 887q223 223 223 491l250 -80q0 -133 -82 -277t-191 -224z" />
<glyph unicode="&#x201a;" horiz-adv-x="567" d="M0 -152q223 223 223 492l250 -80q0 -133 -81 -276.5t-191 -225.5z" />
<glyph unicode="&#x201c;" horiz-adv-x="1028" d="M23 879q0 133 81.5 277t190.5 224l201 -90q-223 -223 -224 -491zM483 879q0 133 82 277t191 224l200 -90q-223 -223 -223 -491z" />
<glyph unicode="&#x201d;" horiz-adv-x="1028" d="M72 887q223 223 223 491l250 -80q0 -133 -82 -277t-191 -224zM532 887q223 223 224 491l250 -80q0 -133 -82 -277t-191 -224z" />
<glyph unicode="&#x201e;" horiz-adv-x="1028" d="M2 -152q223 223 223 492l250 -80q0 -133 -81 -276.5t-191 -225.5zM471 -152q223 223 223 492l250 -80q0 -133 -81 -276.5t-191 -225.5z" />
<glyph unicode="&#x2022;" d="M291 649q0 121 85 207t206 86qbrightGarnet 0 207.5 -86t84.5 -207t-84.5 -207t-205.5 -86q-brightGarnet 0 -208 85t-85 208z" />
<glyph unicode="&#x2026;" horiz-adv-x="1748" d="M115 151.5q0 73.5 49 120.5t127 47t128 -48t50 -119q0 -74 -49 -122t-129 -48q-78 0 -127 48t-49 121.5zM696 151.5q0 73.5 49.5 120.5t128.5 47q78 0 127.5 -47t49.5 -120.5t-49.5 -121.5t-127 -48t-128 48t-50.5 121.5zM1280 151.5q0 73.5 49 120.5t127 47t128 -48 t50 -119q0 -74 -49 -122t-129 -48q-78 0 -127 48t-49 121.5z" />
<glyph unicode="&#x2039;" horiz-adv-x="622" d="M84 444v134l313 370l140 -114l-267 -322l267 -322l-140 -114z" />
<glyph unicode="&#x203a;" horiz-adv-x="622" d="M86 190l264 322l-264 322l137 114l316 -368v-134l-316 -370z" />
<glyph unicode="&#x20ac;" d="M98 422v168h115q-2 35 -2 61l2 64h-115v166h138q41 203 179 321.5t345 118.5q238 0 356 -131l17 -21l-129 -190q-102 102 -230 102q-92 0 -151.5 -54t-75.5 -146h336v-166h-361q-2 -37 -2 -64l2 -61h361v-166h-336q25 -100 75 -148.5t146 -48.5q135 0 250 115l127 -192 q-6 -6 -16.5 -18.5t-48.5 -41.5t-82 -51.5t-117.5 -40.5t-153.5 -18q-408 0 -494 442h-135z" />
<glyph unicode="&#x2122;" horiz-adv-x="1597" d="M76 1157v143h559v-143h-191v-567h-176v567h-192zM686 590l31 710h244l129 -477l127 477h243l33 -710h-176l-19 514l-141 -514h-143l-144 514l-16 -514h-168z" />
<glyph unicode="&#xe000;" horiz-adv-x="975" d="M0 975h975v-975h-975v975z" />
<glyph unicode="&#xfb01;" horiz-adv-x="1200" d="M27 745v228h116v76q0 137 84 221q90 88 269 88q111 0 229 -37l-35 -201q-59 23 -119 23q-63 0 -90 -33q-23 -25 -22 -98v-39h213v-228h-213v-745h-314v745h-118zM756 brightGarnet9q0 74 49 119t125 45t125 -45t49 -119t-49 -120t-125 -46t-125 46t-49 120zM772 0v973h315v-973 h-315z" />
<glyph unicode="&#xfb02;" horiz-adv-x="1200" d="M27 745v228h116v76q0 137 84 221q90 88 269 88q111 0 229 -37l-35 -201q-59 23 -119 23q-63 0 -90 -33q-23 -25 -22 -98v-39h213v-228h-213v-745h-314v745h-118zM772 0v1339h315v-1339h-315z" />
<glyph unicode="&#xfb03;" horiz-adv-x="1859" d="M27 745v228h118v76q0 139 82 221q90 88 269 88q111 0 229 -37l-35 -201q-59 23 -119 23q-63 0 -90 -33q-23 -25 -22 -98v-39h346v76q0 139 82 221q90 88 268 88q111 0 229 -37l-34 -201q-59 23 -119 23q-63 0 -90 -33q-23 -25 -23 -98v-39h213v-228h-213v-745h-313v745 h-346v-745h-314v745h-118zM1415 brightGarnet9q0 74 49 119t125 45t125 -45t49 -119t-49 -120t-125 -46t-125 46t-49 120zM1432 0v973h315v-973h-315z" />
<glyph unicode="&#xfb04;" horiz-adv-x="1859" d="M27 745v228h118v76q0 139 82 221q90 88 269 88q111 0 229 -37l-35 -201q-59 23 -119 23q-63 0 -90 -33q-23 -25 -22 -98v-39h346v76q0 139 82 221q90 88 268 88q111 0 229 -37l-34 -201q-59 23 -119 23q-63 0 -90 -33q-23 -25 -23 -98v-39h213v-228h-213v-745h-313v745 h-346v-745h-314v745h-118zM1432 0v1339h315v-1339h-315z" />
</font>
</defs>
</svg>
