<?xml version="1.0" encoding="UTF-8"?>
<svg width="320px" height="28px" viewBox="0 0 320 28" version="1.1" xmlns="http://www.w3.org/2000/svg" xmlns:xlink="http://www.w3.org/1999/xlink">
    <!-- Generator: Sketch 59.1 (86144) - https://sketch.com -->
    <title>ow logo white</title>
    <desc>Created with Sketch.</desc>
    <g id="OW-redesign-v01.2-developed" stroke="none" stroke-width="1" fill="none" fill-rule="evenodd">
        <g id="01.03" transform="translate(-50.000000, -3546.000000)" fill="#FFFFFF">
            <g id="Group-45" transform="translate(0.000000, 3266.000000)">
                <g id="Group-31" transform="translate(0.000000, 238.000000)">
                    <path d="M85.2262344,42 L97.5420365,49.0008621 L97.5420365,62.9998276 L85.2276354,70 L73.7713685,63.4874258 L62.3144011,70 L61.4569674,69.5117121 L50.8588347,63.4881155 L50,62.9998276 L50,49.0008621 L62.3144011,42.0006897 L73.770668,48.5125742 L85.2262344,42 Z M121.852804,44.2576418 C129.191427,44.2576418 134.515362,49.1867287 134.515362,55.9834479 C134.515362,62.7967191 129.191427,67.7402892 121.852804,67.7402892 C114.50017,67.7402892 109.164326,62.7967191 109.164326,55.9834479 C109.164326,49.1867287 114.50017,44.2576418 121.852804,44.2576418 Z M61.4569674,57.4638292 L52.5737021,62.512919 L61.4569674,67.5620089 L61.4569674,57.4638292 Z M63.1725353,57.4624498 L63.1725353,67.5620089 L72.0558006,62.5122294 L72.0558006,62.5115397 L63.1725353,57.4624498 Z M84.3695012,57.4624498 L75.4869364,62.512919 L84.3695012,67.5620089 L84.3695012,57.4624498 Z M86.0850691,57.4638292 L86.0850691,67.5620089 L94.9683344,62.512919 L86.0850691,57.4638292 Z M354.580204,44.6735141 L366.189884,61.9670435 L366.269043,61.9670435 L366.269043,44.6735141 L370,44.6735141 L370,67.3278652 L365.692517,67.3278652 L353.418745,49.049484 L353.339587,49.049484 L353.339587,67.3251065 L349.611432,67.3251065 L349.611432,44.6735141 L354.580204,44.6735141 Z M167.96018,44.6742038 L175.168507,62.3132589 L175.265879,62.3132589 L182.277361,44.6742038 L186.261206,44.6742038 L176.453257,67.3264859 L173.618962,67.3264859 L163.655499,44.6742038 L167.96018,44.6742038 Z M142.436817,44.6742038 L142.436817,64.3567576 L152.502556,64.3567576 L152.502556,67.3264859 L138.711463,67.3264859 L138.711463,44.6742038 L142.436817,44.6742038 Z M160.401594,44.6742038 L160.401594,67.3264859 L156.609691,67.3264859 L156.609691,44.6742038 L160.401594,44.6742038 Z M218.231434,44.6742038 C224.208251,44.6742038 225.936428,48.6253356 225.936428,50.9350477 C225.936428,54.744107 223.155373,57.2972733 219.283611,57.7400429 L227.345169,67.3264859 L222.752575,67.3264859 L212.850757,55.0999778 L216.840205,55.0999778 C220.477293,55.0999778 222.170445,53.5226976 222.170445,51.3398852 C222.170445,49.1577625 220.641915,47.5722062 217.322162,47.5722062 L212.553737,47.5722062 L212.553737,67.3264859 L208.826283,67.3264859 L208.826283,44.6742038 L218.231434,44.6742038 Z M240.149933,44.6735141 L245.830431,61.9960098 L245.912392,61.9960098 L250.495879,48.9453435 L248.934425,44.6735141 L252.712317,44.6735141 L258.701043,61.8918693 L258.789308,61.8918693 L264.104837,44.6735141 L267.917755,44.6735141 L260.109084,67.3251065 L257.160605,67.3251065 L252.127,53.49 L247.094165,67.3251065 L244.216438,67.3251065 L236.028086,44.6735141 L240.149933,44.6735141 Z M299.561542,44.6762728 L306.820306,62.3580876 L306.934491,62.3580876 L314.366984,44.6762728 L319.54381,44.6762728 L319.54381,67.3251065 L315.934042,67.3251065 L315.934042,49.4922535 L315.857685,49.4922535 L308.307505,67.3251065 L305.14747,67.3251065 L297.938442,49.6315673 L297.862086,49.6315673 L297.862086,67.3251065 L294.310461,67.3251065 L294.310461,44.6762728 L299.561542,44.6762728 Z M336.704392,44.6762728 L345.782402,67.3251065 L341.837086,67.3251065 L339.364959,61.0097786 L329.689408,61.0097786 L327.219382,67.3251065 L323.394556,67.3251065 L332.635085,44.6762728 L336.704392,44.6762728 Z M204.123707,44.6728245 L204.123707,47.6397941 L193.245367,47.6397941 L193.245367,53.9413286 L202.74719,53.9413286 L202.74719,56.9076086 L193.245367,56.9076086 L193.245367,64.3636543 L204.334563,64.3636543 L204.334563,67.3251065 L189.517212,67.3251065 L189.517212,44.6728245 L204.123707,44.6728245 Z M274.490713,44.6742038 L280.493449,55.3696396 L286.959228,44.6742038 L291.165837,44.6742038 L282.204814,58.3910934 L282.204814,67.3230375 L278.476659,67.3230375 L278.476659,58.3910934 L269.989186,44.6742038 L274.490713,44.6742038 Z M121.852804,47.3232346 C117.072471,47.3232346 113.153775,50.9529791 113.153775,55.9834479 C113.153775,61.0311584 117.072471,64.6753861 121.852804,64.6753861 C126.615624,64.6753861 130.523112,61.0311584 130.523112,55.9834479 C130.523112,50.9529791 126.615624,47.3232346 121.852804,47.3232346 Z M84.3688007,44.4373014 L64.0306695,55.9996552 L73.7713685,61.5363433 L84.3688007,55.5120569 L84.3688007,44.4373014 Z M61.4569674,44.4386808 L51.7148674,49.9760585 L51.7148674,61.0494347 L61.4569674,55.5120569 L61.4569674,44.4386808 Z M95.8271691,50.951255 L86.9439039,56.0003448 L95.8271691,61.0494347 L95.8271691,50.951255 Z M334.645571,48.7915466 L334.52228,48.7915466 L330.88239,58.0483263 L338.256039,58.0483263 L334.645571,48.7915466 Z M63.1725353,44.4379911 L63.1725353,54.5375502 L72.0551001,49.4877706 L63.1725353,44.4379911 Z M86.0850691,44.4379911 L86.0850691,54.5375502 L94.9690349,49.4877706 L86.0850691,44.4379911 Z" id="ow-logo-white"></path>
                </g>
            </g>
        </g>
    </g>
</svg>