<?xml version="1.0" encoding="utf-8"?>
<!-- Generator: Adobe Illustrator 20.0.0, SVG Export Plug-In . SVG Version: 6.00 Build 0)  -->
<svg version="1.1" id="Layer_1" xmlns="http://www.w3.org/2000/svg" xmlns:xlink="http://www.w3.org/1999/xlink" x="0px" y="0px"
	 viewBox="0 0 56.1 56.1" style="enable-background:new 0 0 56.1 56.1;" xml:space="preserve">
<style type="text/css">
	.st0{fill:#005A87;}
</style>
<g>
	<path class="st0" d="M54.7,10.8L54.7,10.8C54.7,10.7,54.7,10.7,54.7,10.8c0-0.3,0-0.5,0-0.7c0-0.2,0-0.4-0.1-0.6c0,0,0-0.1,0-0.1
		c-0.7-4-3.9-7.2-7.9-7.9c-0.3,0-0.7-0.1-1-0.1h-0.4H10.9h-0.5c-0.2,0-0.5,0-0.7,0C5.6,1.9,2.3,5.1,1.5,9.1c0,0.1,0,0.1,0,0.2
		c0,0.2-0.1,0.4-0.1,0.6c0,0.2,0,0.5-0.1,0.7c0,0.1,0,0.2,0,0.4v34.2c0,5.3,4.3,9.6,9.6,9.6h34.2c5.3,0,9.6-4.3,9.6-9.6V10.9
		C54.7,10.9,54.7,10.8,54.7,10.8z M18.9,43.4h-7.4V22.3h7.4V43.4z M15.2,19.8c-2.3,0-4.1-1.9-4.1-4.1s1.9-4.1,4.1-4.1
		s4.1,1.9,4.1,4.1S17.5,19.8,15.2,19.8z M45.4,43.4H38V33c0-3.5-1.5-5.2-3.7-5.2c-2,0-4,1.4-4,4.5v11.2h-7.4V22.3h7.4V25
		c1.4-1.9,3.3-3.2,6.6-3.2c7.1,0,8.5,5.2,8.5,9.8V43.4z"/>
</g>
</svg>
