<?xml version="1.0" encoding="utf-8"?>
<!-- Generator: Adobe Illustrator 20.0.0, SVG Export Plug-In . SVG Version: 6.00 Build 0)  -->
<svg version="1.1" id="Layer_1" xmlns="http://www.w3.org/2000/svg" xmlns:xlink="http://www.w3.org/1999/xlink" x="0px" y="0px"
	 viewBox="0 0 56.1 56.1" style="enable-background:new 0 0 56.1 56.1;" xml:space="preserve">
<style type="text/css">
	.st0{fill:#3DA8DB;}
</style>
<g>
	<path class="st0" d="M54.7,10.8L54.7,10.8C54.7,10.7,54.7,10.7,54.7,10.8c0-0.3,0-0.5,0-0.7c0-0.2,0-0.4-0.1-0.6c0,0,0-0.1,0-0.1
		c-0.7-4-3.9-7.2-7.9-7.9c-0.3,0-0.7-0.1-1-0.1h-0.4H10.9h-0.5c-0.2,0-0.5,0-0.7,0C5.6,1.9,2.3,5.1,1.5,9.1c0,0.1,0,0.1,0,0.2
		c0,0.2-0.1,0.4-0.1,0.6c0,0.2,0,0.5-0.1,0.7c0,0.1,0,0.2,0,0.4v34.2c0,5.3,4.3,9.6,9.6,9.6h34.2c5.3,0,9.6-4.3,9.6-9.6V10.9
		C54.7,10.9,54.7,10.8,54.7,10.8z M41.7,22.2c0,0.3,0,0.6,0,0.9c0,9.2-7,19.8-19.8,19.8c-3.9,0-7.6-1.2-10.7-3.1
		c0.5,0.1,1.1,0.1,1.7,0.1c3.3,0,6.3-1.1,8.7-3c-3.1-0.1-5.6-2.1-6.5-4.8c0.4,0.1,0.9,0.1,1.3,0.1c0.6,0,1.3-0.1,1.8-0.2
		c-3.2-0.6-5.6-3.5-5.6-6.8c0,0,0-0.1,0-0.1c0.9,0.5,2,0.8,3.2,0.9c-1.9-1.3-3.1-3.4-3.1-5.8c0-1.3,0.3-2.5,0.9-3.5
		c3.4,4.2,8.6,7,14.4,7.3c-0.1-0.5-0.2-1-0.2-1.6c0-3.9,3.1-7,7-7c2,0,3.8,0.8,5.1,2.2c1.6-0.3,3.1-0.9,4.4-1.7
		c-0.5,1.6-1.6,3-3.1,3.9c1.4-0.2,2.8-0.5,4-1.1C44.3,20,43.1,21.2,41.7,22.2z"/>
</g>
</svg>
